<svg xmlns="http://www.w3.org/2000/svg" direction="ltr" width="251.6057034679111" height="237.47274330206244" viewBox="3091.887754604614 727.349145103926 251.6057034679111 237.47274330206244" stroke-linecap="round" stroke-linejoin="round" style="background-color: transparent;" data-color-mode="light" class="tl-container tl-theme__force-sRGB tl-theme__light"><defs/><g transform="matrix(1, 0, 0, 1, 3163.1568, 817.2697)" opacity="1"><g transform="scale(1)"><path d="M4.2404,-5.0709 T9.6416,-0.1472 20.5994,9.6376 30.552,18.0614 38.934,24.6347 51.2623,33.4588 67.0345,43.8872 79.7268,51.3033 88.4424,55.6217 95.6533,56.7583 103.3334,54.2571 113.9188,48.3697 120.5818,44.6028 A6.1838,6.1838 0 0 1 126.6182,55.3972 T119.8984,59.1142 109.4416,64.9525 100.3955,68.3885 91.2676,67.8391 84.1199,64.0789 75.1976,59.3424 61.8743,51.9036 45.4883,41.563 32.7628,32.8323 23.928,26.4356 13.2629,18.4936 1.5614,9.5154 -4.2404,5.0709 A6.6102,6.6102 0 0 1 4.2404,-5.0709 Z" stroke-linecap="round" fill="#4ba1f1"/></g></g><g transform="matrix(1, 0, 0, 1, 3201.8409, 847.4621)" opacity="1"><g transform="scale(1)"><path d="M7.0974,0 T7.0214,3.9718 6.8515,12.1369 6.6469,20.7488 6.3394,29.6864 6.0164,37.9149 5.5403,46.4152 5.1904,51.2061 A6.1362,6.1362 0 0 1 -7.0704,50.6739 T-7.0038,45.8707 -6.7472,37.4885 -6.5466,29.5384 -6.6469,20.7487 -6.8515,12.1369 -7.0214,3.9718 -7.0974,0 A7.0974,7.0974 0 0 1 7.0974,0 Z" stroke-linecap="round" fill="#4ba1f1"/></g></g><g transform="matrix(1, 0, 0, 1, 3201.8409, 843.6881)" opacity="1"><g transform="scale(1)"><path d="M-0.1576,-6.5054 T4.12,-6.5464 14.4006,-6.6596 25.9273,-6.8279 36.8345,-7.0732 49.2873,-7.4661 56.3567,-7.7099 A4.8765,4.8765 0 0 1 56.8633,2.0299 T49.8068,2.5208 37.4024,3.4209 26.5727,4.3516 14.8989,5.523 4.4323,6.3392 0.1576,6.5054 A6.5073,6.5073 0 0 1 -0.1576,-6.5054 Z" stroke-linecap="round" fill="#4ba1f1"/></g></g><g transform="matrix(1, 0, 0, 1, 3214.5784, 861.6149)" opacity="1"><g transform="scale(1)"><path d="M7.0378,2.1813 T5.5387,6.4036 2.1711,16.7349 -1.0511,26.8268 -2.4047,30.8097 A6.8653,6.8653 0 0 1 -15.5153,26.7303 T-14.3701,22.6825 -11.283,12.5566 -8.1895,2.1486 -7.0378,-2.1813 A7.3681,7.3681 0 0 1 7.0378,2.1813 Z" stroke-linecap="round" fill="#4ba1f1"/></g></g><g transform="matrix(1, 0, 0, 1, 3216.9372, 855.9538)" opacity="1"><g transform="scale(1)"><path d="M-2.2789,-7.2495 T1.3114,-8.2853 10.605,-11.0358 21.1774,-14.5859 29.4438,-17.5892 32.8412,-18.7571 A7.4153,7.4153 0 0 1 37.9188,-4.8229 T34.5666,-3.5312 25.8759,-0.3468 14.9454,3.193 5.8162,6.0447 2.2789,7.2495 A7.5993,7.5993 0 0 1 -2.2789,-7.2495 Z" stroke-linecap="round" fill="#4ba1f1"/></g></g><g transform="matrix(1, 0, 0, 1, 3283.9268, 860.6714)" opacity="1"><g transform="scale(1)"><path d="M 0 0 m -7.778174593052023, 0 a 7.778174593052023,7.778174593052023 0 1,1 15.556349186104047,0 a 7.778174593052023,7.778174593052023 0 1,1 -15.556349186104047,0" stroke-linecap="round" fill="#4ba1f1"/></g></g><g transform="matrix(1, 0, 0, 1, 3280.1527, 860.1996)" opacity="1"><g transform="scale(1)"><path d="M1.9938,7.3711 T-1.8025,8.2792 -10.9245,10.9337 -20.8091,14.2088 -28.6663,16.8313 -31.9644,17.925 A7.4956,7.4956 0 0 1 -36.9156,3.775 T-33.655,2.5738 -25.5107,-0.117 -15.0475,-3.3592 -5.7309,-6.2415 -1.9938,-7.3711 A7.636,7.636 0 0 1 1.9938,7.3711 Z" stroke-linecap="round" fill="#4ba1f1"/></g></g><g transform="matrix(1, 0, 0, 1, 3178.7248, 822.459)" opacity="1"><g transform="scale(1)"><path d="M2.6904,-6.9218 T6.3204,-5.403 14.0875,-1.6945 21.2991,2.1576 28.8151,6.5107 36.2945,11.7858 44.2837,18.4668 52.5092,25.0353 59.079,31.0671 62.3747,34.6273 A7.6327,7.6327 0 0 1 50.8453,44.6327 T48.6045,41.813 43.3219,36.3717 35.1993,29.5299 25.9878,22.042 16.9779,15.8486 8.4046,11.2529 1.0101,8.2523 -2.6904,6.9218 A7.4263,7.4263 0 0 1 2.6904,-6.9218 Z" stroke-linecap="round" fill="#4ba1f1"/></g></g><g transform="matrix(1, 0, 0, 1, 3239.5815, 858.7843)" opacity="1"><g transform="scale(1)"><path d="M5.0065,-6.1563 T6.6545,-4.8533 10.9232,-1.3352 15.1993,2.3918 16.8547,3.9039 A8.1674,8.1674 0 0 1 5.7853,15.9161 T2.0009,12.3839 -3.395,7.504 -5.0065,6.1563 A7.935,7.935 0 0 1 5.0065,-6.1563 Z" stroke-linecap="round" fill="#4ba1f1"/></g></g><g transform="matrix(1, 0, 0, 1, 3175.837, 821.3532)" opacity="1"><g transform="scale(1)"><path d="M-2.4805,7.4415 T-6.5331,6.1494 -10.5857,4.8572 A7.9555,7.9555 0 0 1 -5.5543,-10.2372 T-1.5369,-8.8394 2.4805,-7.4415 A7.844,7.844 0 0 1 -2.4805,7.4415 Z" stroke-linecap="round" fill="#4ba1f1"/></g></g><g transform="matrix(0.829, -0.5592, 0.5592, 0.829, 3184.8626, 769.9059)" opacity="1"><g transform="scale(1)"><path d="M0.164,6.3331 T-6.5121,6.2268 -19.471,6.6738 -30.86,8.0435 -42.1305,10.5875 -54.2345,14.9159 -65.0537,20.3026 -75.1187,27.2676 -84.2027,35.7508 -90.2655,42.799 -94.6656,49.2725 -98.4466,56.3706 -101.6,66.0583 -103.8345,77.8836 -104.341,87.6192 -103.1597,96.4071 -99.143,106.7956 -93.5952,116.9415 -86.3958,126.1885 -76.7506,135.7334 -67.1164,143.5627 -58.5509,148.8085 -49.2941,152.8979 -40.0951,155.9624 -28.0648,157.6506 -12.4128,158.0991 1.5855,157.0767 13.3172,155.4839 23.7615,153.7053 32.8335,151.6708 40.887,149.1513 47.7365,143.6649 52.079,135.6005 55.0079,124.8725 57.1209,110.8257 57.956,96.1934 56.8189,81.3642 54.2129,67.2571 50.7632,54.6914 46.2023,43.3549 40.5531,33.5879 34.625,26.0658 27.5068,19.5088 19.861,14.159 11.9278,10.3025 7.3816,8.3197 A6.618,6.618 0 0 1 13.2184,-3.5597 T17.8686,-1.024 26.4935,4.5909 34.6648,12.2838 41.7631,20.5333 48.1176,29.146 54.449,39.9541 59.5369,52.182 63.4333,65.4328 66.5296,80.5048 68.2098,96.5558 67.9857,112.1809 66.4268,127.9032 63.4947,141.2765 58.0023,151.1606 51.0067,157.0984 43.2326,159.2834 34.7025,160.7116 25.2582,162.447 14.5604,164.2861 2.3223,166.0435 -12.6095,167.3078 -29.8078,166.9638 -43.0844,164.8495 -53.1352,161.2226 -63.3029,156.5458 -72.6687,150.5744 -83.1546,142.2811 -93.8652,131.8878 -102.0121,121.6919 -108.4272,110.2655 -113.428,97.7506 -114.8583,87.3016 -114.5438,76.4279 -111.7733,62.6482 -107.3198,51.3612 -102.4833,43.3963 -97.1436,36.6049 -90.2835,29.3438 -80.2435,19.8717 -69.2897,12.0908 -57.5643,5.971 -44.4537,0.8844 -32.4204,-2.3132 -20.2597,-4.4225 -6.8279,-5.8814 -0.164,-6.3331 A6.3352,6.3352 0 0 1 0.164,6.3331 Z" stroke-linecap="round" fill="#4ba1f1"/></g></g><g transform="matrix(1, 0, 0, 1, 3279.8077, 904.3619)" opacity="1"><g transform="scale(1)"><path d="M5.9453,-3.1929 T8.3146,1.9135 13.0798,10.8589 18.7273,20.0925 21.9788,25.4871 A5.4425,5.4425 0 0 1 12.8612,31.4329 T9.2358,26.2822 2.7819,16.9592 -2.9959,7.99 -5.9453,3.1929 A6.7484,6.7484 0 0 1 5.9453,-3.1929 Z" stroke-linecap="round" fill="#4ba1f1"/></g></g><g transform="matrix(1, 0, 0, 1, 3158.1568, 812.2697)" opacity="1"><g transform="scale(1)"><path d="M4.2404,-5.0709 T9.6416,-0.1472 20.5994,9.6376 30.552,18.0614 38.934,24.6347 51.2623,33.4588 67.0345,43.8872 79.7268,51.3033 88.4424,55.6217 95.6533,56.7583 103.3334,54.2571 113.9188,48.3697 120.5818,44.6028 A6.1838,6.1838 0 0 1 126.6182,55.3972 T119.8984,59.1142 109.4416,64.9525 100.3955,68.3885 91.2676,67.8391 84.1199,64.0789 75.1976,59.3424 61.8743,51.9036 45.4883,41.563 32.7628,32.8323 23.928,26.4356 13.2629,18.4936 1.5614,9.5154 -4.2404,5.0709 A6.6102,6.6102 0 0 1 4.2404,-5.0709 Z" stroke-linecap="round" fill="#4465e9"/></g></g><g transform="matrix(1, 0, 0, 1, 3196.8409, 842.4621)" opacity="1"><g transform="scale(1)"><path d="M7.0974,0 T7.0214,3.9718 6.8515,12.1369 6.6469,20.7488 6.3394,29.6864 6.0164,37.9149 5.5403,46.4152 5.1904,51.2061 A6.1362,6.1362 0 0 1 -7.0704,50.6739 T-7.0038,45.8707 -6.7472,37.4885 -6.5466,29.5384 -6.6469,20.7487 -6.8515,12.1369 -7.0214,3.9718 -7.0974,0 A7.0974,7.0974 0 0 1 7.0974,0 Z" stroke-linecap="round" fill="#4465e9"/></g></g><g transform="matrix(1, 0, 0, 1, 3196.8409, 838.6881)" opacity="1"><g transform="scale(1)"><path d="M-0.1576,-6.5054 T4.12,-6.5464 14.4006,-6.6596 25.9273,-6.8279 36.8345,-7.0732 49.2873,-7.4661 56.3567,-7.7099 A4.8765,4.8765 0 0 1 56.8633,2.0299 T49.8068,2.5208 37.4024,3.4209 26.5727,4.3516 14.8989,5.523 4.4323,6.3392 0.1576,6.5054 A6.5073,6.5073 0 0 1 -0.1576,-6.5054 Z" stroke-linecap="round" fill="#4465e9"/></g></g><g transform="matrix(1, 0, 0, 1, 3209.5784, 856.6149)" opacity="1"><g transform="scale(1)"><path d="M7.0378,2.1813 T5.5387,6.4036 2.1711,16.7349 -1.0511,26.8268 -2.4047,30.8097 A6.8653,6.8653 0 0 1 -15.5153,26.7303 T-14.3701,22.6825 -11.283,12.5566 -8.1895,2.1486 -7.0378,-2.1813 A7.3681,7.3681 0 0 1 7.0378,2.1813 Z" stroke-linecap="round" fill="#4465e9"/></g></g><g transform="matrix(1, 0, 0, 1, 3211.9372, 850.9538)" opacity="1"><g transform="scale(1)"><path d="M-2.2789,-7.2495 T1.3114,-8.2853 10.605,-11.0358 21.1774,-14.5859 29.4438,-17.5892 32.8412,-18.7571 A7.4153,7.4153 0 0 1 37.9188,-4.8229 T34.5666,-3.5312 25.8759,-0.3468 14.9454,3.193 5.8162,6.0447 2.2789,7.2495 A7.5993,7.5993 0 0 1 -2.2789,-7.2495 Z" stroke-linecap="round" fill="#4465e9"/></g></g><g transform="matrix(1, 0, 0, 1, 3278.9268, 855.6714)" opacity="1"><g transform="scale(1)"><path d="M 0 0 m -7.778174593052023, 0 a 7.778174593052023,7.778174593052023 0 1,1 15.556349186104047,0 a 7.778174593052023,7.778174593052023 0 1,1 -15.556349186104047,0" stroke-linecap="round" fill="#4465e9"/></g></g><g transform="matrix(1, 0, 0, 1, 3275.1527, 855.1996)" opacity="1"><g transform="scale(1)"><path d="M1.9938,7.3711 T-1.8025,8.2792 -10.9245,10.9337 -20.8091,14.2088 -28.6663,16.8313 -31.9644,17.925 A7.4956,7.4956 0 0 1 -36.9156,3.775 T-33.655,2.5738 -25.5107,-0.117 -15.0475,-3.3592 -5.7309,-6.2415 -1.9938,-7.3711 A7.636,7.636 0 0 1 1.9938,7.3711 Z" stroke-linecap="round" fill="#4465e9"/></g></g><g transform="matrix(1, 0, 0, 1, 3173.7248, 817.459)" opacity="1"><g transform="scale(1)"><path d="M2.6904,-6.9218 T6.3204,-5.403 14.0875,-1.6945 21.2991,2.1576 28.8151,6.5107 36.2945,11.7858 44.2837,18.4668 52.5092,25.0353 59.079,31.0671 62.3747,34.6273 A7.6327,7.6327 0 0 1 50.8453,44.6327 T48.6045,41.813 43.3219,36.3717 35.1993,29.5299 25.9878,22.042 16.9779,15.8486 8.4046,11.2529 1.0101,8.2523 -2.6904,6.9218 A7.4263,7.4263 0 0 1 2.6904,-6.9218 Z" stroke-linecap="round" fill="#4465e9"/></g></g><g transform="matrix(1, 0, 0, 1, 3234.5815, 853.7843)" opacity="1"><g transform="scale(1)"><path d="M5.0065,-6.1563 T6.6545,-4.8533 10.9232,-1.3352 15.1993,2.3918 16.8547,3.9039 A8.1674,8.1674 0 0 1 5.7853,15.9161 T2.0009,12.3839 -3.395,7.504 -5.0065,6.1563 A7.935,7.935 0 0 1 5.0065,-6.1563 Z" stroke-linecap="round" fill="#4465e9"/></g></g><g transform="matrix(1, 0, 0, 1, 3170.837, 816.3532)" opacity="1"><g transform="scale(1)"><path d="M-2.4805,7.4415 T-6.5331,6.1494 -10.5857,4.8572 A7.9555,7.9555 0 0 1 -5.5543,-10.2372 T-1.5369,-8.8394 2.4805,-7.4415 A7.844,7.844 0 0 1 -2.4805,7.4415 Z" stroke-linecap="round" fill="#4465e9"/></g></g><g transform="matrix(0.829, -0.5592, 0.5592, 0.829, 3179.8626, 764.9059)" opacity="1"><g transform="scale(1)"><path d="M0.164,6.3331 T-6.5121,6.2268 -19.471,6.6738 -30.86,8.0435 -42.1305,10.5875 -54.2345,14.9159 -65.0537,20.3026 -75.1187,27.2676 -84.2027,35.7508 -90.2655,42.799 -94.6656,49.2725 -98.4466,56.3706 -101.6,66.0583 -103.8345,77.8836 -104.341,87.6192 -103.1597,96.4071 -99.143,106.7956 -93.5952,116.9415 -86.3958,126.1885 -76.7506,135.7334 -67.1164,143.5627 -58.5509,148.8085 -49.2941,152.8979 -40.0951,155.9624 -28.0648,157.6506 -12.4128,158.0991 1.5855,157.0767 13.3172,155.4839 23.7615,153.7053 32.8335,151.6708 40.887,149.1513 47.7365,143.6649 52.079,135.6005 55.0079,124.8725 57.1209,110.8257 57.956,96.1934 56.8189,81.3642 54.2129,67.2571 50.7632,54.6914 46.2023,43.3549 40.5531,33.5879 34.625,26.0658 27.5068,19.5088 19.861,14.159 11.9278,10.3025 7.3816,8.3197 A6.618,6.618 0 0 1 13.2184,-3.5597 T17.8686,-1.024 26.4935,4.5909 34.6648,12.2838 41.7631,20.5333 48.1176,29.146 54.449,39.9541 59.5369,52.182 63.4333,65.4328 66.5296,80.5048 68.2098,96.5558 67.9857,112.1809 66.4268,127.9032 63.4947,141.2765 58.0023,151.1606 51.0067,157.0984 43.2326,159.2834 34.7025,160.7116 25.2582,162.447 14.5604,164.2861 2.3223,166.0435 -12.6095,167.3078 -29.8078,166.9638 -43.0844,164.8495 -53.1352,161.2226 -63.3029,156.5458 -72.6687,150.5744 -83.1546,142.2811 -93.8652,131.8878 -102.0121,121.6919 -108.4272,110.2655 -113.428,97.7506 -114.8583,87.3016 -114.5438,76.4279 -111.7733,62.6482 -107.3198,51.3612 -102.4833,43.3963 -97.1436,36.6049 -90.2835,29.3438 -80.2435,19.8717 -69.2897,12.0908 -57.5643,5.971 -44.4537,0.8844 -32.4204,-2.3132 -20.2597,-4.4225 -6.8279,-5.8814 -0.164,-6.3331 A6.3352,6.3352 0 0 1 0.164,6.3331 Z" stroke-linecap="round" fill="#4465e9"/></g></g><g transform="matrix(1, 0, 0, 1, 3274.8077, 899.3619)" opacity="1"><g transform="scale(1)"><path d="M5.9453,-3.1929 T8.3146,1.9135 13.0798,10.8589 18.7273,20.0925 21.9788,25.4871 A5.4425,5.4425 0 0 1 12.8612,31.4329 T9.2358,26.2822 2.7819,16.9592 -2.9959,7.99 -5.9453,3.1929 A6.7484,6.7484 0 0 1 5.9453,-3.1929 Z" stroke-linecap="round" fill="#4465e9"/></g></g></svg>